# xmcd CD database file
#
# Track frame offsets:
#	150
#	19355
#	34836
#	50983
#	67946
#	83568
#	101492
#	121337
#	139616
#	158788
#	172567
#	191210
#	209656
#
# Disc length: 3000 seconds
#
# Revision: 0
# Processed by: cddbd v1.5.2PL0 Copyright (c) Steve Scherf et al.
# Submitted via: CDex 1.70beta2
#
DISCID=b00bb60d
DTITLE=Alan Jackson - Like Red On A Rose
DYEAR=2006
DGENRE=Country
TTITLE0=Anywhere On Earth You Are
TTITLE1=Good Imination Of The Blues
TTITLE2=Like Red On A Rose
TTITLE3=Nobody Said That It Would Be Easy
TTITLE4=Don´t chance On Me
TTITLE5=The Firefly´s Song
TTITLE6=Wait A Minute
TTITLE7=Had it Not Been You
TTITLE8=A Woman´s Love
TTITLE9=Don´t Ask Why
TTITLE10=As Lovely As You
TTITLE11=Where Do I Go From here (A Trucker´s Song)
TTITLE12=Bluebird
EXTD=YEAR: 2006
EXTT0=
EXTT1=
EXTT2=
EXTT3=
EXTT4=
EXTT5=
EXTT6=
EXTT7=
EXTT8=
EXTT9=
EXTT10=
EXTT11=
EXTT12=
PLAYORDER=
